<svg xmlns="http://www.w3.org/2000/svg" width="1200" height="600" viewBox="0 0 1200 600" role="img" aria-label="Personal Health Sync dashboard preview"><defs><linearGradient id="g" x1="0" x2="1"><stop stop-color="#0f766e"/><stop offset="1" stop-color="#2563eb"/></linearGradient></defs><rect width="1200" height="600" rx="28" fill="#f4f7fb"/><rect x="45" y="40" width="1110" height="135" rx="24" fill="url(#g)"/><text x="82" y="97" font-family="Segoe UI,Arial" font-size="39" font-weight="700" fill="white">Personal Health Sync</text><text x="82" y="138" font-family="Segoe UI,Arial" font-size="23" fill="#dbeafe">Local-first, vendor-neutral health observations</text><g font-family="Segoe UI,Arial"><g fill="white" stroke="#dbe4f0"><rect x="45" y="200" width="345" height="115" rx="18"/><rect x="427" y="200" width="345" height="115" rx="18"/><rect x="810" y="200" width="345" height="115" rx="18"/></g><g fill="#172033"><text x="75" y="248" font-size="31" font-weight="700">130</text><text x="75" y="283" font-size="19">observations</text><text x="457" y="248" font-size="31" font-weight="700">5</text><text x="457" y="283" font-size="19">metrics</text><text x="840" y="248" font-size="31" font-weight="700">local only</text><text x="840" y="283" font-size="19">privacy mode</text></g><rect x="45" y="345" width="1110" height="205" rx="18" fill="white" stroke="#dbe4f0"/><g fill="#526176" font-size="17"><text x="75" y="389">METRIC</text><text x="500" y="389">VALUE</text><text x="745" y="389">DATE</text><text x="950" y="389">SOURCE</text></g><g fill="#172033" font-size="20"><text x="75" y="438">Body weight</text><text x="500" y="438" font-weight="700">72.1 kg</text><text x="745" y="438">2026-07-13</text><text x="950" y="438">scale</text><text x="75" y="493">Sleep</text><text x="500" y="493" font-weight="700">7.3 hours</text><text x="745" y="493">2026-07-13</text><text x="950" y="493">health export</text></g></g></svg>